<svg id="Capa_1" data-name="Capa 1" xmlns="http://www.w3.org/2000/svg" xmlns:xlink="http://www.w3.org/1999/xlink" viewBox="0 0 867.73 741.93"><defs><style>.cls-1{fill:url(#Degradado_sin_nombre_76);}.cls-2{fill:#fff;}.cls-3{fill:#ccc;}.cls-4{fill:#da251c;}</style><radialGradient id="Degradado_sin_nombre_76" cx="2609.5" cy="515" fx="2744.6459434783446" fy="409.3059789522413" r="366.11" gradientTransform="matrix(0.94, -0.33, 0.34, 0.99, -2209.4, 721.28)" gradientUnits="userSpaceOnUse"><stop offset="0.17" stop-color="#f1f7fa"/><stop offset="0.26" stop-color="#e8f2f7"/><stop offset="0.4" stop-color="#cee4f0"/><stop offset="0.58" stop-color="#a5cce4"/><stop offset="0.79" stop-color="#6cadd4"/><stop offset="0.81" stop-color="#67aad3"/><stop offset="0.91" stop-color="#2d8ac3"/><stop offset="1" stop-color="#0071b6"/></radialGradient></defs><title>cimesvg</title><ellipse class="cls-1" cx="431.67" cy="370.56" rx="367.5" ry="363"/><path class="cls-2" d="M2957,387l49,15,29,47-6,53,11,53-26,74-62.72,19.67L2921,634l-41,29-108,6-15-13-26,18h-85l-17-5-91,5-45-9-38,9-68-18-31,7-39-10-13-12-32,8-30-6-39.57-17.27L2187,574V493l18-74,16-17,41-15,21,7,11-7,3-8-3-23,15.77-47.08L2332,288l38-16,31,5,18,30v33l-15,26,11,8h7l40-12,68-6,21,11,9,7,17-13,69-5,46,5,27,19,4,7,13-4,19-16h78l72,12,26,23Z" transform="translate(-2177.83 -144.44)"/><path class="cls-3" d="M3045.49,540.4a101.35,101.35,0,0,0-3.73-24.72,66.31,66.31,0,0,1-2.57-13.48,41.76,41.76,0,0,1,1-12.11c3.87-16.91,2.86-33.64-1.94-50.2a122.91,122.91,0,0,0-12.07-29,42.15,42.15,0,0,0-20.09-17.77,133.89,133.89,0,0,0-38.84-10.36c-3.09-.33-6.19-.61-9.28-.66a4.08,4.08,0,0,1-4.27-3,331.56,331.56,0,0,0-25.91-52.92,381.23,381.23,0,0,0-51.41-67.75,361.84,361.84,0,0,0-87.55-67.1,383.92,383.92,0,0,0-64.93-28.4,364.6,364.6,0,0,0-104.06-18.14c-.49,0-1.05.15-1.45-.33h-18.2c-1.47.7-3.05.33-4.57.39q-18.3.72-36.46,3.08a363.6,363.6,0,0,0-65.42,14.82,374.43,374.43,0,0,0-72.85,32.86A366.91,366.91,0,0,0,2279.52,344a347.61,347.61,0,0,0-16,35.09,3.86,3.86,0,0,1-3.11,2.7c-8.17,1.74-16.31,3.59-24.47,5.41a44.48,44.48,0,0,0-26.33,16.87,107.28,107.28,0,0,0-15.29,28.66,252.83,252.83,0,0,0-12.93,51.75,361.12,361.12,0,0,0-3.18,36.88c-.24,6.43-.47,12.86-.33,19.29.41,19,2.3,37.77,8.05,56,2.61,8.29,5.8,16.3,10.68,23.55,7.9,11.72,18.8,19.22,32.25,23.26,9.15,2.75,18.46,4.78,27.8,6.68.51.11,1,.24,1.52.31,3.92.56,6.23,2.86,7.71,6.47a362.57,362.57,0,0,0,48.42,84.68c18.23,23.69,39.34,44.54,62.6,63.25a370.58,370.58,0,0,0,59,38.91,355.72,355.72,0,0,0,77.78,30.1,374.67,374.67,0,0,0,47.46,9,390.77,390.77,0,0,0,42,3.1c.49,0,1.05-.14,1.43.37h9.77c.62-.61,1.4-.36,2.11-.36a345.9,345.9,0,0,0,65-6.86,389.45,389.45,0,0,0,87.85-29.58,356.18,356.18,0,0,0,94.14-64.31A373.61,373.61,0,0,0,2938,686.55a300.48,300.48,0,0,0,14.29-31.25,2.33,2.33,0,0,1,2.23-1.79c11.63-.52,22.7-3.77,33.82-6.82,4.28-1.18,8.61-2.14,12.9-3.25A42.81,42.81,0,0,0,3023.62,629c7.58-9,12.47-19.34,15.65-30.57a171.26,171.26,0,0,0,4.84-26.59A223.23,223.23,0,0,0,3045.49,540.4Zm-129-208.85c6.52,10.3,14,26.58,14.32,30.74-.69-.24-1-.88-1.37-1.39a176.5,176.5,0,0,0-19.89-21.74,42,42,0,0,1-10.43-13.93,32.08,32.08,0,0,1-2.89-13.33,33.89,33.89,0,0,0-.4-7.36C2898.45,306.06,2910.24,321.7,2916.49,331.55ZM2894.36,340c.81-.18,1.06.36,1.41.7a262,262,0,0,1,29.67,34.05c3.38,4.66,6.68,9.39,10.2,13.95,1.38,1.79,1.31,2-.77,3.52a51.07,51.07,0,0,0-34.36-21.72c-5.67-1-11.42-1.5-17.12-2.27-3.42-.46-6.83-1-10.25-1.5-.06-.14-.11-.29-.17-.43a63.4,63.4,0,0,0,12.76-11.55A56.21,56.21,0,0,0,2894.36,340Zm-175.28,13.66a336.11,336.11,0,0,1-100.7-56.89c-14.19-11.65-26.85-24.76-37.16-40a110.48,110.48,0,0,1-9.24-15.9,7.94,7.94,0,0,1-1-2.68c98.88,21.72,188.64,62.8,269.15,124.07a26,26,0,0,1-6.48-.37q-13.33-1.44-26.71-2.55c-6.12-.51-12.2-1.36-18.31-2-7.58-.74-15.16-1.43-22.79-.76a37.5,37.5,0,0,0-13.2,3.58,13.44,13.44,0,0,1-9.48,1C2735,359.12,2727,356.47,2719.08,353.63Zm11.46,23.78c-.78.89-1.58,1.76-2.61,2.89a101.8,101.8,0,0,0-13.3-13.13c.64-.42,1,0,1.36.16q6.47,3.42,12.91,6.88a13.63,13.63,0,0,1,1.32.8C2731.56,375.94,2731.59,376.21,2730.54,377.41ZM2426,294.93c-.45-1.73-.45-2,1.52-2.12a212,212,0,0,1,25.71-.19q10,.57,19.94,1a3.66,3.66,0,0,1,3.39,2,260,260,0,0,0,40.65,51.65c.83.83,1.64,1.67,2.46,2.5l-.15.47c-3.45.23-6.91.48-10.36.7q-12.84.84-25.68,1.64c-5.61.35-11.22.59-16.82,1a89.68,89.68,0,0,0-35.15,10.05,29.33,29.33,0,0,1-4.62,2.13,4.7,4.7,0,0,1-4.58-.84,13.83,13.83,0,0,1-3.17-3.69,3.71,3.71,0,0,1-.11-3.61c.85-2,1.72-3.93,2.51-5.92a94.68,94.68,0,0,0,7.18-36.54A82.77,82.77,0,0,0,2426,294.93ZM2648,225.71A86.18,86.18,0,0,0,2664.65,251l2.52,2.73c-.05.1-.11.19-.17.29-2.14-.72-4.28-1.42-6.41-2.16-18.41-6.45-36.92-12.59-55.82-17.44-11.45-2.94-23-5.61-34.57-7.83-.51-.09-1-.25-1.52-.34a3.64,3.64,0,0,1-3.14-3.25,58.71,58.71,0,0,1-1.26-14.54,43.43,43.43,0,0,1,6.48-20.72c1.4-2.27,3-2.95,5.7-2.61,22.39,2.87,44.38,7.7,66.24,13.22,4.05,1,4,1,3.07,5.09C2643.93,211.09,2645,218.51,2648,225.71Zm9-21.08c.38-1.68.58-1.84,2.29-1.31,5.58,1.73,11.15,3.46,16.69,5.32a616,616,0,0,1,67.62,27.3,622.29,622.29,0,0,1,71.09,39.58c2.48,1.6,2.45,1.61.56,3.89-4.63,5.63-10.73,8.65-17.71,10.23-5.59,1.27-11.28,1.44-17.62,1.72a137.54,137.54,0,0,1-29.38-4.15c-16.93-4.25-32.63-11.39-47.55-20.32a141,141,0,0,1-24.28-17.84,93.84,93.84,0,0,1-17.43-21.46,34.09,34.09,0,0,1-4.9-14.59A28,28,0,0,1,2657,204.63Zm-68,79.85a270.92,270.92,0,0,0,30.54,27.71c.34.26.67.54,1,.81l-.2.38-9.9-3.12c-18.94-6.05-38-11.59-57.46-15.92q-19.69-4.38-39.65-7.44c-9-1.37-18-2.49-27.07-3.44a6.52,6.52,0,0,1-5.65-4c-5.11-10.82-9.08-22-10.83-33.89a93.28,93.28,0,0,1-.94-12.38c0-.3,0-.59,0-.89.12-3.17.64-3.78,3.78-3.87,5.63-.17,11.25,0,16.87.18,6.79.24,13.59.55,20.37,1.06,9.59.71,19.16,1.64,28.68,3,5.35.75,10.67,1.64,16,2.36a4.57,4.57,0,0,1,4,3.15C2565.74,255.51,2576.2,270.74,2588.94,284.48Zm-69.34,49c-9.46-10.32-18.56-20.92-26.44-32.51-1.09-1.59-2.11-3.22-3.16-4.83-.11-.18-.16-.39-.37-.88a63.81,63.81,0,0,1,9.29.78,626.29,626.29,0,0,1,104.48,23.9,689.17,689.17,0,0,1,79.66,31.19,3.11,3.11,0,0,1,1.58,1.06c-2.63-.58-5.12-1.19-7.63-1.7a130.73,130.73,0,0,0-25.59-2.32q-13,0-26-.15c-6-.05-12-.29-18-.19-15.46.26-29.22,5.43-41.45,14.81-1.29,1-2.51,2.07-3.79,3.08s-1.65,1.16-2.92.21c-8.35-6.26-17.3-11.67-25.44-18.21C2528.61,343.47,2524.14,338.43,2519.6,333.47Zm310.92,7.15A616.64,616.64,0,0,0,2773.93,304a6.67,6.67,0,0,1-2.19-1.58c4.83,0,9.26.1,13.68,0a64.19,64.19,0,0,0,27-6.3,32.27,32.27,0,0,0,13.08-11.35c1-1.48,1-1.48,2.52-.4,17.95,12.69,35.42,26,51.61,40.89,1.14,1.05,2.2,2.19,3.28,3.3a5.49,5.49,0,0,1,1.13,6.51,48.47,48.47,0,0,1-9.46,14.89A60.74,60.74,0,0,1,2861,360.2a4.27,4.27,0,0,1-5.44-.44C2847.29,353.26,2839,346.81,2830.52,340.62Zm-10.66-102.05a4.06,4.06,0,0,1,1.91,1c8.64,5.47,16.69,11.74,24.81,17.93,6.13,4.67,12,9.65,17.88,14.6a56.84,56.84,0,0,1,17.12,25.45,104.59,104.59,0,0,1,4,15.67,11,11,0,0,1,.11,1.5c-.61.29-.88-.16-1.18-.43a483.56,483.56,0,0,0-51.24-40,6,6,0,0,1-3-5.31c.21-9.67-3.07-18.27-8-26.36-.78-1.25-1.58-2.49-2.36-3.75C2819.81,238.84,2819.85,238.76,2819.86,238.57Zm-108.17-67.28a474,474,0,0,1,60.5,24.65,367.08,367.08,0,0,1,35.54,19.54,98.24,98.24,0,0,1,11.05,7.79,584.45,584.45,0,0,0-55.31-30.13,565.28,565.28,0,0,0-58.55-23.64A33,33,0,0,1,2711.69,171.29Zm7.66,18.42c22.39,5.47,43.37,14.2,62.29,27.52a139.39,139.39,0,0,1,24.51,22.09A58.8,58.8,0,0,1,2817.54,259c.36,1,.61,2.12.88,3.2a3,3,0,0,1-.08,1.93,639.41,639.41,0,0,0-151.68-70.58c.21-.89.89-1.08,1.43-1.39a38.64,38.64,0,0,1,12.78-4.18C2693.83,185.62,2706.66,186.61,2719.35,189.71Zm-109.48-26.15a45.59,45.59,0,0,1,18.28-.71,398.72,398.72,0,0,1,55.58,12.31c.48.15.95.35,1.53.56-.46.82-1.19.61-1.77.66a56.69,56.69,0,0,0-21.18,6.09,27.11,27.11,0,0,0-7.24,5.06,4.38,4.38,0,0,1-4.83,1.18c-11.51-3.3-23.15-6.09-34.88-8.51q-14.55-3-29.26-5.13c-.49-.08-1.06,0-1.4-.51.12-.59.67-.74,1.09-1A93.36,93.36,0,0,1,2609.87,163.56Zm-92,6.55a124.29,124.29,0,0,1,23-6.54,209.41,209.41,0,0,1,41.65-3.8,7.87,7.87,0,0,1,3.37.45,82.56,82.56,0,0,0-12.65,8.06c-1.38,1.12-2.71,2.29-4,3.48a3.35,3.35,0,0,1-2.8.91c-10.75-1-21.52-1.64-32.32-1.66H2516.8C2516.82,170.26,2517.45,170.28,2517.88,170.11Zm-28.05,16.74a15.88,15.88,0,0,1,10.91-4.14c9.54,0,19.05-.93,28.59-.86,8.27.06,16.56.26,24.81,1a28.71,28.71,0,0,1,5.66.64c-7.29,12.54-8.41,25.83-5.71,40-9.32-1.32-18.4-2.73-27.54-3.7s-18.39-1.73-27.63-2.2-18.45-.34-27.73-.29a12.83,12.83,0,0,1,1.1-4.23A59.89,59.89,0,0,1,2489.83,186.85Zm-79.55,32.09a101.61,101.61,0,0,1,33.79-22.35,172.77,172.77,0,0,1,27.22-8.6c.49-.12,1-.18,1.86-.33-1.47,2.09-2.79,3.85-4,5.7a71.27,71.27,0,0,0-9.32,21.2c-.11.43-.28.85-.35,1.28a2.13,2.13,0,0,1-2.25,1.95q-8.39.75-16.76,1.67a279.94,279.94,0,0,0-33.18,5.62c-.85.2-1.7.35-2.85.59A50.7,50.7,0,0,1,2410.28,218.94Zm-22.77,45.29c1.3-6.59,2.61-13.19,5.07-19.48a8.5,8.5,0,0,1,5.91-5.23,267.82,267.82,0,0,1,39.81-8.59c5.79-.77,11.58-1.46,17.41-1.78.22,0,.44-.07.66-.08,1.54,0,1.65.05,1.64,1.55,0,2,0,4,0,6a92.19,92.19,0,0,0,4.76,27.85,139.29,139.29,0,0,0,6.21,15.88c.23.52.65,1,.48,1.67-1.41,0-2.81.06-4.2,0-5.24-.25-10.47-.56-15.71-.8-1.41-.06-2.88-.51-4.19.58-.32.26-1,.09-1.52.1-6.43.07-12.86-.17-19.29.16a9,9,0,0,1-7.59-3.29c-6.26-7-14.26-10.84-23.49-12.2-1.54-.23-3.09-.31-4.62-.54C2387.53,265.81,2387.26,265.5,2387.51,264.23Zm-8.11-16.94a7.38,7.38,0,0,1-.57,3.09,72.76,72.76,0,0,0-2.48,13.26c-.15,2.13-.14,2.18-2.26,2.35a103.2,103.2,0,0,0-16.37,2.73c-3.8.92-7.54,2.08-11.25,3.32a6.56,6.56,0,0,1-1.9.4C2354.19,261.45,2366.14,253.75,2379.4,247.29ZM2276.13,381.08a104.69,104.69,0,0,1,6.21-17.48,28.77,28.77,0,0,1,4.41-7.34c0,1.24,0,2.47,0,3.7a49.29,49.29,0,0,0,3.1,19.31,2.74,2.74,0,0,1-.8,3.55,10,10,0,0,0-2.56,3.3,1.58,1.58,0,0,1-2.31.87,78.54,78.54,0,0,1-7.58-3.62C2275.4,382.77,2275.92,381.86,2276.13,381.08ZM2321,725.94c-15.2-17.33-27.92-36-35.29-58.26,1,.24,1.2.9,1.58,1.37q11.73,14.34,24.64,27.61a21.6,21.6,0,0,0,2.17,1.89,14.92,14.92,0,0,1,5.93,12.09c0,.67.05,1.34,0,2a35.33,35.33,0,0,0,1.11,11.85A1.4,1.4,0,0,1,2321,725.94Zm.76-35.87c-5.76-5.23-10.8-11.15-15.93-17s-10-11.88-14.65-18.11a5.68,5.68,0,0,1-1.26-2c3.09-.81,5.68-2.64,8.48-4.07,2.51-1.29,3.45-1.11,5.53.86a22.68,22.68,0,0,1,2.11,2.27c4.56,5.67,10.67,8.56,17.68,9.67,6.28,1,12.59,1.79,18.88,2.69a1.83,1.83,0,0,1,1.52.65c-9.32,6.78-16.78,15-20.77,25.85C2322.49,691.05,2322.19,690.45,2321.77,690.07Zm244.76,109.42a105.1,105.1,0,0,0-13.81-19.77c-.38-.45-.75-.91-1.12-1.37,0-.05,0-.14-.09-.51a55.75,55.75,0,0,1,7.77,2.3,621.76,621.76,0,0,0,88.18,24.17c.29.06.58.16.87.19a3.56,3.56,0,0,1,3.34,3.26,69.9,69.9,0,0,1,1.21,8.11,44.15,44.15,0,0,1-5.67,26c-.26.44-.55.88-.8,1.33a4.44,4.44,0,0,1-5,2.46c-3.07-.43-6.17-.72-9.24-1.17a520.24,520.24,0,0,1-59.36-12.6c-.36-.1-.72-.18-1.08-.26-.93-.22-1.14-.79-.87-1.66C2574.29,819.13,2571.61,809.16,2566.53,799.49Zm-5.76,20.09a29,29,0,0,1-.55,6.83c-.29,1.31-.55,1.54-1.82,1.22-2.07-.52-4.14-1.12-6.18-1.77a634.57,634.57,0,0,1-84.94-34,639.34,639.34,0,0,1-63.61-35.69c-3.61-2.31-3.65-2.55-.86-5.75,4-4.65,9.32-7.15,15.12-8.78a76.45,76.45,0,0,1,18.75-2.4,132.13,132.13,0,0,1,18.61,2.08c28.68,5.2,54.24,17.3,77.09,35.22a94.61,94.61,0,0,1,23.07,25.87A34.15,34.15,0,0,1,2560.77,819.58Zm65.82-75a292.41,292.41,0,0,0-28.41-25.76c-.55-.44-1.26-.74-1.66-1.69,2.05.67,3.92,1.27,5.79,1.9a608.28,608.28,0,0,0,79.2,21.06c12.77,2.48,25.61,4.54,38.54,6,4,.46,8.08.91,12.13,1.32a4.42,4.42,0,0,1,3.92,2.71c5.2,10.85,9.37,22,11.28,34a82.71,82.71,0,0,1,1.06,15.24,9.8,9.8,0,0,1-.14,1.54,1.65,1.65,0,0,1-1.62,1.54c-.74,0-1.48.07-2.22.08q-17.31.21-34.57-1c-15.79-1.12-31.48-3.08-47.09-5.75a5.21,5.21,0,0,1-4.39-3.45C2651,774.23,2640,758.65,2626.59,744.59Zm118.13-7.17a4.75,4.75,0,0,1-4.36-2.72,248.85,248.85,0,0,0-31.53-41.94c-3.06-3.32-6.23-6.53-9.33-9.8-.44-.46-1.08-.79-1.14-1.55.62-.6,1.41-.43,2.1-.48,7.3-.52,14.6-.94,21.9-1.48,4.57-.34,9.17-.46,13.64-1.54a40.83,40.83,0,0,0,18.05-10c.32-.3.62-.63,1-.92,1.33-1.15,1.59-1.21,3.1-.22a51.51,51.51,0,0,0,11.92,5.84,50,50,0,0,0,23.62,2.06c6.23-.93,8.37.07,11.52,5.42,7,11.86,13.36,24,18,37a124.28,124.28,0,0,1,4.36,14.64c.48,2.12.35,2.34-1.67,2.67q-11.16,1.83-22.44,2.74c-14.91,1.24-29.84,1.09-44.78.81C2754,737.89,2749.37,737.56,2744.72,737.42ZM2719.09,723c2.76,3.67,5.36,7.44,7.87,11.28a1.1,1.1,0,0,1,.24,1,60.5,60.5,0,0,1-11.74-.58c-19.28-2.33-38.13-6.75-56.91-11.5q-34-8.61-67.2-19.78a457.15,457.15,0,0,1-44.1-16.88c-2.35-1.08-4.67-2.24-7-3.4a3.93,3.93,0,0,1-1.83-1.21c.4-.51.95-.28,1.42-.29,11.46-.12,22.92.35,34.38.65,5,.12,9.9.24,14.86.29,4.73,0,9.46.28,14.19,0,9.33-.48,18.14-2.59,26-7.93a1.84,1.84,0,0,1,2.37.1,48.28,48.28,0,0,0,19.67,7.07,50,50,0,0,0,13.27,0c6-.82,11.95-.54,17.61,2a30.55,30.55,0,0,1,10.31,7.55C2701.61,701.76,2710.8,712,2719.09,723Zm-110.67,19.56c10.59,9.75,20.38,20.2,28.34,32.27a121.32,121.32,0,0,1,8.9,15.85,3.62,3.62,0,0,1,.55,1.95c-98.73-21.54-188.24-62.7-268.87-124.43a40.44,40.44,0,0,0,9.17-3,2.21,2.21,0,0,1,2.46.23c7,4.57,14.84,6.55,23,7.34,12.88,1.26,25.78,2.37,38.67,3.48,5.38.47,10.76.91,16.15,1.16a44.84,44.84,0,0,0,18.33-2.56,8.64,8.64,0,0,1,6.25-.09,396.43,396.43,0,0,1,46,19.28A306.11,306.11,0,0,1,2608.42,742.57Zm-229.59-58.15a624.43,624.43,0,0,0,65,42.7c.7.39,1.38.82,2.07,1.23,0,.14,0,.28-.07.41-2.79-.14-5.59-.32-8.38-.42a74.85,74.85,0,0,0-25.57,3.53c-8.27,2.61-15.2,7.18-20.19,14.41a2.16,2.16,0,0,1-.95.94,10.92,10.92,0,0,1-2.59-1.62,537.23,537.23,0,0,1-53.85-42.69,4.46,4.46,0,0,1-1.46-5.4,43.78,43.78,0,0,1,17.57-23.27,74.2,74.2,0,0,1,6.44-3.92c2.29-1.24,2.29-1.25,4.26.34Q2369.88,677.68,2378.83,684.42Zm7.62,100.64a361,361,0,0,1-39.35-31.71c-3.84-3.58-6.32-8-8.44-12.62a83.49,83.49,0,0,1-6.55-21.8,5.17,5.17,0,0,1-.06-2.62c.8,0,1.15.63,1.62,1.05a518.84,518.84,0,0,0,50.73,39.5,5.36,5.36,0,0,1,2.68,4.9c0,9.81,3.11,18.73,8.24,27,.58.94,1.18,1.87,1.77,2.81a4.69,4.69,0,0,1,.09.61C2393.32,789.89,2389.89,787.46,2386.45,785.06Zm120.73,74.54c-31.48-9.38-61.37-22.31-89.12-40-.49-.3-1.08-.51-1.36-1.09a3.2,3.2,0,0,1-1.82-1.21,3.13,3.13,0,0,1,2,1.06,4.7,4.7,0,0,1,2,.93,539.25,539.25,0,0,0,54.71,26.88c11.24,4.74,22.64,9,34.16,13.06.62.21,1.23.44,2,.71C2508.66,860.34,2507.91,859.82,2507.18,859.6Zm-14.67-19.8c-19.37-5.33-37.66-13.15-54.38-24.42a129.17,129.17,0,0,1-29.51-27c-4.78-6-8.37-12.7-9.83-20.37a1.5,1.5,0,0,1,.12-1.31,637.82,637.82,0,0,0,151.74,70.7,5.42,5.42,0,0,1-2.27,1.7,40.67,40.67,0,0,1-14.38,4.23C2519.91,845.13,2506.11,843.54,2492.51,839.8Zm108.34,28.65c-3.64.71-7.36.23-11-.35-14.6-2.3-29.1-5.09-43.4-8.83-4.57-1.2-9.11-2.52-13.66-3.8a1.75,1.75,0,0,1-1.24-.66,28.49,28.49,0,0,1,5.28-.83,51.53,51.53,0,0,0,19.11-6,38.18,38.18,0,0,0,7.16-5.2,3.34,3.34,0,0,1,3.61-.83,472.81,472.81,0,0,0,49.86,11.43c4.79.86,9.61,1.6,14.42,2.4.57.09,1.14.24,2.19.48a58.71,58.71,0,0,1-9.85,5.48A102.4,102.4,0,0,1,2600.85,868.45Zm30.92,2.57c-.06-.15-.11-.31-.17-.47.61-.35,1.21-.71,1.83-1a68.47,68.47,0,0,0,14.58-10.4,3.81,3.81,0,0,1,3.39-1.08,322.07,322.07,0,0,0,34.71,2.14c3.48,0,6.95,0,10.43,0h2.09c0,.17,0,.35,0,.52C2677.15,869.25,2654.63,871.21,2631.77,871Zm95.46-26.68a11.76,11.76,0,0,1-7,2.95c-3.09.33-6.19.58-9.28.76-6.2.35-12.4.65-18.6.81-10.14.27-20.23-.64-30.34-1.09a19.9,19.9,0,0,1-4.46-.36c.86-1.74,1.64-3.24,2.34-4.77a52.51,52.51,0,0,0,4.37-27.69c-.21-2-.49-4-.8-5.93-.27-1.75-.23-1.84,1.45-1.58,3.79.6,7.59,1.22,11.38,1.8,8.33,1.29,16.71,2.2,25.1,2.89,12.31,1,24.64,1.5,37,1.42l6.66-.07c.89,0,1.21.33.92,1.22s-.47,1.71-.76,2.54A66.51,66.51,0,0,1,2727.23,844.34Zm82.29-34.65c-12.19,12.93-27.12,21.48-43.73,27.34-6.34,2.23-12.81,4-19.34,5.61a2.93,2.93,0,0,1-1.89.05l2.29-3.07c3.5-4.71,6.52-9.68,8-15.45.26-1,.47-2,.72-3,1.43-5.83,4.34-8.4,10.31-8.94,3.75-.33,7.51-.49,11.27-.78a177.32,177.32,0,0,0,29.63-5.23c1.71-.43,3.42-.9,5.14-1.33.54-.14,1.09-.47,1.78,0A35,35,0,0,1,2809.52,809.69Zm15.6-24a8.42,8.42,0,0,1-5.7,5.37,247.38,247.38,0,0,1-27.09,6.7,241.78,241.78,0,0,1-30.33,3.85c-.37,0-.74,0-1.1.08-1,.14-1.3-.35-1.28-1.27,0-1.62,0-3.25,0-4.87,0-12.36-2.79-24.17-7.11-35.67-1.09-2.9-2.35-5.74-3.5-8.63-.26-.66-.81-1.26-.58-2.19A36,36,0,0,1,2755,749a348.77,348.77,0,0,0,40.77-.15c10.85-.7,21.64-1.85,32.38-3.55,1.93-.31,2-.28,2.16,1.63C2831.27,760.21,2830,773.2,2825.12,785.71Zm66.82-58.35A66.38,66.38,0,0,1,2881.86,748c-10.88,15.39-25.13,26.74-42.15,34.7a2.49,2.49,0,0,1-1.51.33,108.52,108.52,0,0,0,2.77-13.15,106.06,106.06,0,0,0,.47-23.89c-.27-3.11-.35-3.12,2.61-3.76a200.47,200.47,0,0,0,46.1-16.2,4.15,4.15,0,0,1,2-.78C2892.56,726,2892.13,726.67,2891.94,727.36Zm4.43-20.63a5.16,5.16,0,0,1-2.74,4.47,178.22,178.22,0,0,1-52.12,20.14l-.44.07c-1.67.29-1.67.29-2.1-1.29-.51-1.93-1-3.86-1.53-5.78-4.6-16.43-11.79-31.7-20.47-46.32-.83-1.4-1.67-2.8-2.49-4.2a1.46,1.46,0,0,1-.09-.48,25.17,25.17,0,0,1,5.66-.87c14.75-1.83,29.5-3.59,44.26-5.37q9.24-1.12,18.49-2.28a32.62,32.62,0,0,0,6.46-1.52c2.14-.72,2.15-.73,2.81,1.5a109,109,0,0,1,2.89,12.76A121.23,121.23,0,0,1,2896.37,706.73Zm43.23-53.14c-.67,2-1.18,4-1.87,5.92-5.68,15.91-15.38,29-28.09,40a1.56,1.56,0,0,1-1.2.52c-.17-3.34-.24-6.58-.49-9.81a135.54,135.54,0,0,0-5.46-29.35c-.74-2.46-.74-2.46,1.56-3.78A48.89,48.89,0,0,0,2918.92,644c.22-.29.45-.58.67-.88a.77.77,0,0,1,1.3-.14c.49.45,1,.89,1.51,1.31a41.69,41.69,0,0,0,14.16,7.15c.71.21,1.42.4,2.14.57C2939.57,652.22,2939.93,652.63,2939.6,653.59ZM3031.78,561a142.67,142.67,0,0,1-9.11,44.12,48.27,48.27,0,0,1-10.25,16.48,35.53,35.53,0,0,1-19.25,10.33c-7.06,1.33-14,3.22-20.87,5.15a75.41,75.41,0,0,1-21,3.26c-7.9-.06-15.21-2.07-21.35-7.35a42.69,42.69,0,0,1-9.21-11.58c-.65-1.16-1.3-2.31-2-3.5-.87.5-1,1.36-1.31,2.07a96.37,96.37,0,0,1-5.57,10.84c-7,11.58-17.26,18.42-30.59,20.67-8.68,1.46-17.42,2.47-26.15,3.58q-12.54,1.58-25.11,2.92c-8.16.89-16.34,1.67-24.51,2.44q-8.39.81-16.79,1.47a35.77,35.77,0,0,1-25.83-8c-1.27-1-2.41-2.18-3.64-3.25-3.35-2.88-6.24-2.56-8.8,1.07a43.21,43.21,0,0,1-5.29,6.55c-5.46,5.2-12.11,7.51-19.5,7.93-12.92.73-25.84,1.5-38.76,2.1-9.68.44-19.37.85-29.06.49a48.15,48.15,0,0,1-10.73-1.54,27.61,27.61,0,0,1-12.88-7.48c-3.3-3.39-4.87-3.32-8,.18a27.8,27.8,0,0,1-16.89,9c-5.23.87-10.49.5-15.73.45q-14.86-.13-29.72-.56c-11.61-.32-23.21-.57-34.81-1.14-3.39-.17-6.8-.1-10.19-.49a32.12,32.12,0,0,1-20.59-10.24c-3.4-3.65-5.16-3.66-8.57-.1a24.38,24.38,0,0,1-14.87,7.2c-4.23.58-8.41.13-12.61-.21q-11.94-1-23.87-2c-10.16-1-20.33-1.76-30.45-3.08a24.57,24.57,0,0,1-15.28-7.36c-1.78-1.88-3.88-3-6.56-1.85a7.3,7.3,0,0,0-2.32,1.69c-3,3.14-6.77,4.12-11,3.64q-9.81-1.14-19.59-2.44c-9.16-1.23-18.32-2.46-27.46-3.8a19.15,19.15,0,0,1-12.31-6.82,31.65,31.65,0,0,1-5.68-9.2,10.28,10.28,0,0,0-3.83-4.77c-.94-.67-1.34-.44-1.9.41a33.19,33.19,0,0,1-4.47,5.5,23.93,23.93,0,0,1-16.37,6.87c-5,.2-9.85-.8-14.7-1.84-11.35-2.43-22.72-4.75-33.86-8-7.68-2.27-14.49-5.93-20-11.77a51.78,51.78,0,0,1-10.28-16.22,136.76,136.76,0,0,1-9.95-43c-.7-10.48-1.26-21-1.14-31.47.35-28.94,4.22-57.33,13.65-84.82a169.53,169.53,0,0,1,8.8-21.78c2.72-5.39,6.05-10.34,10.79-14.21a28.9,28.9,0,0,1,6.38-4,96.33,96.33,0,0,1,34.93-8.45,20,20,0,0,1,13.1,4,57.1,57.1,0,0,1,8.41,7.89,9.09,9.09,0,0,0,2.33,2.24c1.36-2.81,2.79-5.55,4-8.38a28.14,28.14,0,0,1,11-13.25c2.33-1.44,2.63-3.34,1.18-6a43.66,43.66,0,0,1-4.67-12.4,52.64,52.64,0,0,1-.33-17.88,109.82,109.82,0,0,1,6.28-25.12c7.51-19.1,21.08-32.2,40-39.82a99.66,99.66,0,0,1,34.53-7.33A38.37,38.37,0,0,1,2399,282.2c8.27,3.78,13.22,10.2,15.08,19.05a76,76,0,0,1,1.09,17.68,78.38,78.38,0,0,1-6,28.49,75.23,75.23,0,0,1-11.37,18.71,30.81,30.81,0,0,0-2.44,3.15,3.59,3.59,0,0,0,1.2,5.36,11.6,11.6,0,0,0,2.16,1.11c6.25,2.51,9.43,7.34,10.46,13.79a35.71,35.71,0,0,1,.47,4.85c0,1.54.1,1.55,1.63,1.75a5,5,0,0,0,5-2.15,65.3,65.3,0,0,1,31.31-23.08,80.84,80.84,0,0,1,20.38-4.08c13.71-1.16,27.45-1.77,41.17-2.69a111.92,111.92,0,0,1,11.29-.46,47.44,47.44,0,0,1,26.61,9.3,58.83,58.83,0,0,1,7.41,6.33c.78.79,1.55,1.6,2.37,2.34,2.59,2.32,5.13,2.4,7.75.16,1.35-1.14,2.55-2.46,3.84-3.68,8.39-8,18.06-13.55,29.47-15.92a66.44,66.44,0,0,1,16.11-1.1c10.8.41,21.61.13,32.41.24a192,192,0,0,1,21.7,1.17c24.13,3,43,14.45,56.09,35.11,1,1.62,2,3.27,2.9,5,1.11,2.22,3,3.34,5.14,4.34.89.41,1-.21,1.13-.81.59-2.45,1.21-4.88,1.78-7.33a37.51,37.51,0,0,1,17.79-24.4,33.75,33.75,0,0,1,20.44-4.64c8.85.64,17.7,1.28,26.54,2.07,9.8.87,19.58,1.87,29.36,2.92q14.11,1.51,28.2,3.29c8.8,1.12,17.58,2.45,26.37,3.66,3.8.53,7.61,1.15,11.43,1.48,12.31,1.07,21.84,6.82,28.87,16.86a48,48,0,0,1,6.36,11.64,9.87,9.87,0,0,0,3.95,4.66c.7.5,1,.19,1.38-.41q1.72-3.1,3.47-6.19c.62-1.1,1.23-2.19,1.86-3.28,4.87-8.56,12.2-12.22,22.8-10.92,9.28,1.13,18.24,3.74,27.23,6.17a44.88,44.88,0,0,1,12.7,5.11c6.65,4.24,11.2,10.25,14.43,17.31A115.36,115.36,0,0,1,3029,463.78a94.74,94.74,0,0,1-1.38,24.53,29.75,29.75,0,0,1-3.8,10.13,6.93,6.93,0,0,0,.18,8.25c4,5.95,6,12.67,6.89,19.72A191.62,191.62,0,0,1,3031.78,561Z" transform="translate(-2177.83 -144.44)"/><path class="cls-4" d="M2690,654.88c-10.07.17-20.64.69-31.21.68a24.78,24.78,0,0,1-4.86-.39c-5.9-1.19-8.63-4.37-8.87-10.42a53.67,53.67,0,0,1,1-10.59,332.93,332.93,0,0,0,4.4-43c.3-10,.45-20,.19-29.95-.31-12.34-1.09-24.66-2.44-36.94-.95-8.68-1.9-17.35-3.66-25.91a57.55,57.55,0,0,0-4.84-15.16A21,21,0,0,0,2636,478a12.76,12.76,0,0,0-20.68,2.87,55.48,55.48,0,0,0-5.43,15.43c-1.22,5.72-1.89,11.52-2.54,17.33q-1.59,14.32-2.32,28.73c-.53,10.5-.68,21-.37,31.5.36,12.2,1.27,24.36,2.84,36.47,1.42,10.86,3.35,21.62,5.72,32.3a22.4,22.4,0,0,1,.59,5.95c-.18,3.68-1.88,5.91-5.43,6.94a21.12,21.12,0,0,1-5.91.81h-37.74c-1.05,0-2.33.35-2.39-1.42,0-.43-.51-.46-.87-.48-.6,0-1.19,0-1.78,0-11,0-22,0-33.08,0a48.7,48.7,0,0,1-9.94-.6,15,15,0,0,1-1.5-.39c-3.95-1.22-5.79-3.61-6.08-7.77a34.52,34.52,0,0,1,.58-7.73c2.19-14,3.61-28,4.4-42.11q.92-16.41.71-32.82-.24-17.29-1.55-34.56c-.53-6.78-1-13.56-1.92-20.31a105,105,0,0,0-5.27-23.08,21.57,21.57,0,0,0-2.5-4.93,9.06,9.06,0,0,0-6.82-4,13.11,13.11,0,0,0-12.87,5.76,24,24,0,0,0-3.16,6.81,124.86,124.86,0,0,0-4.78,23.66c-1.32,11.68-2.15,23.41-2.75,35.15-.57,11-.74,22-.37,33.05a262.93,262.93,0,0,0,3.3,35.53c1.19,7.07,2.38,14.14,3.5,21.22a19.71,19.71,0,0,1-.1,7.06c-.91,4.45-3.45,6.63-8,6.77-1.92.06-3.85,0-5.77-.11-14.23-1-28.47-1.95-42.7-3a147.61,147.61,0,0,1-16.1-1.66,13.82,13.82,0,0,1-11-9.22,109.15,109.15,0,0,1-4-15.21,235.25,235.25,0,0,1-5-46.89c-.05-3.63-.28-7.25-.27-10.87,0-22.21,1.43-44.33,5.29-66.24,3.91-22.2,9.6-43.9,18.61-64.63A164.17,164.17,0,0,1,2423,409.89c9.62-15,23.42-23.23,41-25.28,8.6-1,17.27-1,25.91-1.38,6.64-.28,13.27-.75,19.89-1.53,14.13-1.67,25.68,3.32,34.84,14a48.07,48.07,0,0,1,10.64,23.33c.75,4.22,1.71,8.4,2.58,12.6a5.74,5.74,0,0,0,.39,1.49,1.39,1.39,0,0,0,2.59,0,9.88,9.88,0,0,0,.7-2.09c1.53-5.56,2.71-11.2,4.44-16.71,4.43-14.06,12.91-24.77,26-31.71a32,32,0,0,1,16-3.82c3.17.08,6.36.05,9.54.08,13.75.15,27.51.16,41.27.49,11.94.28,23.27,3,33.47,9.6a64.94,64.94,0,0,1,20.35,21.33,196,196,0,0,1,16.68,35.71,316.54,316.54,0,0,1,13,48.81q3.43,18.09,5.15,36.44c.82,8.76,1.42,17.53,1.57,26.34.08,5.25.22,10.49.15,15.74q-.27,19.43-2.33,38.73A149.28,149.28,0,0,1,2741,641c-.31,1-.67,2-1,2.93-2,5.55-6,8.39-11.78,8.94-5.45.52-10.92.78-16.38,1.06C2704.69,654.28,2697.6,654.55,2690,654.88ZM2447.08,401.82a21.32,21.32,0,0,0-9.45,6.49,76.16,76.16,0,0,0-6.52,9c-8.17,12.39-13.82,25.93-18.45,40a310.06,310.06,0,0,0-14,69.86c-1.09,12.15-1.53,24.34-1.54,36.56a293.16,293.16,0,0,0,5.43,57.31q.9,4.45,1.87,8.9a5.6,5.6,0,0,0,2.79,4.07,1.64,1.64,0,0,0,1.87-.2c.61-.48.34-1,.19-1.6-1.08-4.37-2.27-8.73-3.16-13.14a253.13,253.13,0,0,1-3.86-32.35,353.58,353.58,0,0,1-.36-42.57c.54-10.57,1.51-21.09,3-31.57q2.82-19.75,7.46-39.19c4-16.44,9.25-32.4,17.2-47.4,3.72-7,7.73-13.81,13.17-19.67C2444.12,404.72,2445.62,403.29,2447.08,401.82Zm63.62,65.34a3.25,3.25,0,0,0,1,1.54c.32.41.66.8,1,1.2,5.41,6.72,8,14.6,9.32,23,1.78,10.95,3.14,21.95,4.15,33,1.16,12.67,1.75,25.37,1.84,38.09q.15,19.63-1.43,39.22c-.68,8.33-1.52,16.64-2.65,24.92-.44,3.22-.86,6.44-1.17,9.68-.23,2.41,1.05,3.75,3.28,3.72a1.55,1.55,0,0,0,1.76-1.56c.42-5.54,1.61-11,2.37-16.46a370.6,370.6,0,0,0,3.41-47.3c.15-13.69-.31-27.35-1.25-41-.77-11.21-1.46-22.43-3.2-33.54a94.13,94.13,0,0,0-7-24.66,21.62,21.62,0,0,0-3.26-5.26A13.41,13.41,0,0,0,2510.7,467.16Zm135.15-.05,1.85,2.56a58.11,58.11,0,0,1,10.58,25.1q2.91,17.5,4.61,35.17c1.23,12.89,1.8,25.81,2,38.75.08,5.17-.16,10.34-.29,15.52q-.3,12.42-1.57,24.78c-1,9.26-2.2,18.5-3.3,27.75a18.77,18.77,0,0,0-.16,3.09c.09,1.75,1.21,2.72,3.08,2.8,1.58.07,2.09-.42,2.38-2.48,1.11-7.91,1.93-15.85,2.7-23.8,1.56-16.13,2.28-32.3,2.31-48.49q0-12.65-.67-25.27c-.58-10.34-1.46-20.65-2.73-30.92a125.57,125.57,0,0,0-4.31-21.72,66.54,66.54,0,0,0-8.3-17.59A12,12,0,0,0,2645.85,467.11ZM2571,442.6a10.37,10.37,0,0,0,5.24-2.72,14.16,14.16,0,0,0,3.86-7.35c.76-3.16,1.45-6.34,2.16-9.52,2.27-10.1,5.49-19.7,13.92-26.58a1.31,1.31,0,0,0,.3-1.93,1.89,1.89,0,0,0-1.22.5,44.73,44.73,0,0,0-9.69,8.41c-3.57,4.2-5.65,9.15-7.21,14.37C2576,425.91,2574.66,434.36,2571,442.6Z" transform="translate(-2177.83 -144.44)"/><path class="cls-4" d="M2879.1,524.29h-2.44c-8.73,0-17.46,0-26.2,0-2.14,0-4.29.06-6.42.25-2.78.24-4.1,1.5-4.07,4.28.11,9.84,2.41,18.92,9.69,26.1a26.85,26.85,0,0,0,15.89,7.72c15.76,1.94,29.68-2.44,41.72-12.78a36.33,36.33,0,0,0,6.11-6.7c.33-.47.61-1.06,1.4-.72a1.41,1.41,0,0,1,1,1.52c-.17,2.29-.28,4.58-.46,6.86-1,13.64-2,27.28-3.11,40.92a198.24,198.24,0,0,1-2.56,21.57,35.7,35.7,0,0,1-4.75,12.35c-5.07,8-12.42,12.44-21.72,13.84-6.58,1-13.22,1.49-19.84,2.19-8.38.89-16.77,1.71-25.15,2.54q-11.7,1.15-23.41,2.26c-8.09.75-16.19,1.66-24.3,2.12-6.67.38-12.95-1.1-18.1-5.78-3.82-3.46-5.87-7.9-7-12.83a56.6,56.6,0,0,1-1.12-11.9c-.22-10.14.61-20.24,1.35-30.35.65-9,1-18,1.16-27,.21-9.46.11-18.93-.17-28.39q-.41-13.51-1.56-27c-.79-9.36-1.88-18.68-3.14-28-1.54-11.37-3.95-22.56-6.52-33.73-1.91-8.28-3.89-16.55-5.31-24.94-1.08-6.41-.73-12.74,2.39-18.58,4.74-8.91,12.43-13.16,22.39-13.44a117.09,117.09,0,0,1,12.83.84q11.83,1,23.65,2.07c8.17.78,16.33,1.63,24.49,2.48,7.43.78,14.85,1.56,22.27,2.39q12.57,1.4,25.12,2.87,7.93.92,15.86,1.88c9.87,1.22,16.95,6.53,21.67,15.1a40.28,40.28,0,0,1,4.64,21.63c-.26,6-1.42,11.88-2.07,17.83q-1.08,10.15-2.08,20.3c-.72,7.36-1.44,14.72-2,22.09-.56,6.78-1,13.56-1.17,20.37a36.8,36.8,0,0,1-.35,4.19c-.31,2.22-1.23,3.09-3.47,3.32-1.1.11-2.22.11-3.33.11H2879.1ZM2784.71,634c.06-.2.11-.27.1-.33a3.72,3.72,0,0,0-.25-.82c-3.13-6.12-3.9-12.66-3.5-19.4.51-8.56,1.09-17.12,1.62-25.68.43-7.08.68-14.17,1-21.26.41-10.21.45-20.41.2-30.61-.28-11.67-.93-23.34-2-35-1-10.16-2.18-20.29-3.78-30.36a451.67,451.67,0,0,0-9.87-46.16c-2-7.33-2-14.62,1.37-21.66a.73.73,0,0,0-.05-.94,9.45,9.45,0,0,0-6,5.66,19.55,19.55,0,0,0-1.28,8.49,46.08,46.08,0,0,0,1.52,9.4c2.6,9.94,5,19.93,6.88,30a480.33,480.33,0,0,1,6.8,49.85c1.11,13.27,1.75,26.55,1.85,39.86.07,9.17-.17,18.33-.56,27.5-.44,10.11-1.05,20.22-1.7,30.33-.33,4.94-.66,9.88-.8,14.83a23.29,23.29,0,0,0,3.63,13.51A5.15,5.15,0,0,0,2784.71,634Zm78.69-161.75c1.35,0,3-.08,4.74,0,4.79.28,6.24-1.31,5.28-6a25.47,25.47,0,0,0-12.19-17.2,16.92,16.92,0,0,0-8.61-2.6,16.12,16.12,0,0,0-12.85,5.42,25.44,25.44,0,0,0-6.21,14.2c-.36,2.78.73,4.19,3.44,4.75a16.81,16.81,0,0,0,3.07.36c3.63.05,7.25,0,10.87,0a13.53,13.53,0,0,1,3.31,0C2857.15,472,2860.14,471.53,2863.4,472.24ZM2873,444c.24,1.65.25,1.65.82,2.39A54.05,54.05,0,0,1,2882,462a21.43,21.43,0,0,1-1.05,17.19c-.2.39-.71.77-.28,1.32,5-2.31,6.52-4.69,6.27-10a34.92,34.92,0,0,0-11-24.15A11,11,0,0,0,2873,444Z" transform="translate(-2177.83 -144.44)"/><path class="cls-4" d="M2300.52,563.2c-.72-9.52-2.12-19-3.31-28.42a19.34,19.34,0,0,0-2.91-8.28c-1.35,3.34-2.54,6.27-3.72,9.21-.73.38-2.11,7.21-18.09,16.73a41.26,41.26,0,0,1-24.61,1.84,16.78,16.78,0,0,1-9.38-5.41c-5.48-6.56-9.72-13.77-10.05-22.66,0-.59-.13-1.18-.18-1.77-.34-4.05-.94-8.1-1-12.15a97.44,97.44,0,0,1,3-23.48,29.76,29.76,0,0,1,4.77-10.43,11.21,11.21,0,0,1,1-1.23,2,2,0,0,1,2.27-.21c.78.3.3,1,.17,1.54a101.36,101.36,0,0,0-2.23,11.31c-1,7.27.25,14.22,2.52,21.13,9.1,27.87,38.2,15.08,47.68-5.51.63-1.37,2.52-2.41,5.64-25.05a95.06,95.06,0,0,0,.61-20.36,128,128,0,0,0-6.53-30.44c-3.86-7.7-11.09-21.06-23.25-20.26-7.93-.12-15.55,1.62-23.06,4-5.87,1.06-13.57,3.29-18.84,10.18-1.13,1.56-3.2,3.42-5.25,7.24-.9,2.19-2.46,4-3.36,6.19a225.44,225.44,0,0,0-12.38,40.89c-1.69,8.42-2.73,16.93-3.67,25.46-1,9.19-1.7,18.41-2,27.64a218.15,218.15,0,0,0,3,44.42,124.4,124.4,0,0,0,4.42,18.52c1.87,5.49,5.41,10,8.42,14.77.12.18.29.42.47.45,1.17.23,1.49,1.28,2,2.08a8.07,8.07,0,0,0,4.27,3.68,2.64,2.64,0,0,1,1.06.77,13.08,13.08,0,0,0,5.81,3.1,23.51,23.51,0,0,1,3.84,1.06,45.67,45.67,0,0,0,13.15,3.82c3.72.61,7.53.9,11.13,1.93a114.18,114.18,0,0,0,23.76,4.15c4.55.29,8.85-.39,12.55-3.35,1.1-.89,1.87-2.1,2.89-3a29.25,29.25,0,0,0,7.48-12.39,56.84,56.84,0,0,0,2.55-16.82A304.75,304.75,0,0,0,2300.52,563.2Zm-80.41-127.59a216.58,216.58,0,0,0-16.56,57.56,298.49,298.49,0,0,0-3.12,35.33c-.23,7.69-.33,15.37,0,23.06.4,9.41.36,16.28,2.56,25.44.19.78,3,12,6.53,19.73,0,.06-.09.26-.19.52-.76-.29-1-1-1.31-1.62a52.38,52.38,0,0,1-6.17-16.77,178.18,178.18,0,0,1-2.56-21.35c-.57-7.08-.79-14.18-.74-21.28a282,282,0,0,1,11.74-79.81,146.82,146.82,0,0,1,8.71-21.33,3,3,0,0,1,1.35-1.54A2.2,2.2,0,0,1,2220.11,435.61Z" transform="translate(-2177.83 -144.44)"/><path class="cls-4" d="M2387,391.32c7.33-.08,10.11,3.35,8.66,9.81-1,4.48-2.62,8.77-4,13.14a386.05,386.05,0,0,0-10.85,43.43q-3.22,16.55-5.19,33.3c-1.58,13.36-2.75,26.77-3.36,40.22-.41,8.87-.65,17.74-.64,26.61s.22,17.74.69,26.6c.72,13.59,1.83,27.14,3.49,40.65a80.44,80.44,0,0,1,1.08,9.92c0,4.15-1.68,6.1-5.75,6.78a21.33,21.33,0,0,1-6.18.09c-9.25-1.14-18.51-2.18-27.76-3.29-4.48-.54-8.94-1.17-13.41-1.77a9.94,9.94,0,0,1-1.08-.25c-4.73-1.17-6.76-3.46-7.16-8.33-.34-4.05-.59-8.11-.8-12.17-.63-12-1.21-24.07-1.83-36.1-.73-14.11-1.5-28.21-2.23-42.31-.77-14.76-1.55-29.53-2.59-44.28-.64-9.22-1.2-18.45-1.94-27.66-1.33-16.66-2.72-33.31-5.12-49.86a25.8,25.8,0,0,1-.22-7.08,8.15,8.15,0,0,1,5.21-6.88,24.48,24.48,0,0,1,6.67-1.58q18.7-2.35,37.42-4.63,15.63-1.92,31.26-3.81C2383.5,391.61,2385.64,391.45,2387,391.32Zm-73.71,24c0-1,.1-1.59.1-2.18,0-1-.54-1.46-1.54-1.44-1.33,0-2,.74-2.08,2.31a47.56,47.56,0,0,0,.65,6.62c.64,5.73,1.43,11.44,2,17.18.73,7.73,1.31,15.48,1.9,23.22.85,11,1.72,22,2.48,32.95.72,10.4,1.29,20.81,2,31.21,1,15.87,1.86,31.74,2.61,47.62q.86,18.5,1.69,37c.18,3.92.31,7.83.48,11.75a5.81,5.81,0,0,0,.91,3.37,1.8,1.8,0,0,0,1.94.78,1.45,1.45,0,0,0,1.05-1.52c.06-1,.1-2.07.1-3.11,0-9.62-.05-19.24,0-28.86,0-3.78-.34-7.53-.62-11.29-.66-8.84-1.4-17.69-2.07-26.53-.52-6.79-1-13.57-1.48-20.36q-1-13.93-2.06-27.87c-.64-8.62-1.23-17.25-1.92-25.88q-1.17-14.47-2.5-28.95c-.8-8.69-1.68-17.36-2.55-26.05C2314,421.8,2313.63,418.34,2313.3,415.29Z" transform="translate(-2177.83 -144.44)"/><path class="cls-4" d="M2310.28,356.13a67.64,67.64,0,0,1,4.44-26.71c6.08-15.7,17.05-26.44,33-31.81a103.12,103.12,0,0,1,29.15-5.22,29.12,29.12,0,0,1,8.35,1c9.3,2.41,14.47,8.66,16.4,17.86a53.53,53.53,0,0,1,.45,16.13,64.31,64.31,0,0,1-6.94,24.36c-7,13.12-17.83,21.7-31.68,26.58a74.54,74.54,0,0,1-36.31,3.29,19.55,19.55,0,0,1-16.88-18.39C2310.14,360.87,2310.28,358.49,2310.28,356.13Zm23.56-41a6.16,6.16,0,0,0-2.32,1.66,37,37,0,0,0-10.17,16.64,78.21,78.21,0,0,0-3.12,20.09,20.45,20.45,0,0,0,3.62,12.35,7.07,7.07,0,0,0,1,1.2,1.2,1.2,0,0,0,1.62.16c.62-.44.17-1,0-1.38a30.86,30.86,0,0,1-2.25-7.86c-1.34-10,.34-19.58,3.85-28.91C2327.85,324.22,2330.73,319.89,2333.84,315.13Z" transform="translate(-2177.83 -144.44)"/><path class="cls-4" d="M3029.28,548.57a182.7,182.7,0,0,0-1.91-18.52c-.81-5.13-3.5-9.37-6.28-13.55a15,15,0,0,0-5.46-4.45c-1.75-1-3.63-1.71-5.32-2.72-2.56-1.52-4.88-3.42-7.31-5.16a16.62,16.62,0,0,0-3.61-2.44,2.6,2.6,0,0,1-1.78-1.49,4.42,4.42,0,0,0-.9-1.25,32.11,32.11,0,0,1-7.78-12.47,9.37,9.37,0,0,0-.55-1.21,14.77,14.77,0,0,1-1.46-5.76,74.45,74.45,0,0,1,.47-15.93,6.36,6.36,0,0,1,2-3.63,2.2,2.2,0,0,1,3.72,1.31,28.26,28.26,0,0,1,.43,4.4,38.58,38.58,0,0,0,9.68,25.58,15.2,15.2,0,0,0,4.93,4.05,8.78,8.78,0,0,0,9.06-.62,13.65,13.65,0,0,0,3.92-3.17C3023,489,3024,485,3024.74,482s1.26-7,.84-9.49c-.28-1.62.42-5.54-.49-12.35-.39-3-.63-5.88-1.78-8.65a9.31,9.31,0,0,1-.53-2.14c-.51-3.47-4.48-14.22-6.3-17.14a7.8,7.8,0,0,0-.62-.92c-1.39-1.7-2.18-3.78-3.53-5.52a13.25,13.25,0,0,0-2.6-2.69c-1.52-1.12-2.95-2.34-4.55-3.37a12.5,12.5,0,0,0-2.83-1.64c-1.83-.6-3.66-1.19-5.49-1.75a161.48,161.48,0,0,0-32.54-6.64,16.18,16.18,0,0,0-15.18,6.54,23.57,23.57,0,0,0-2.95,5.19c-8.93,21.18-11.66,43.29-9.83,66a31.66,31.66,0,0,0,5.78,16.11c1.24,1.74,2.62,3.38,3.76,5.2a9.41,9.41,0,0,0,3.94,3.5,4.43,4.43,0,0,1,1.28.84,14.93,14.93,0,0,0,5.19,3.24,57.21,57.21,0,0,1,6.3,3q7.33,3.95,14.89,7.41c2.22,1,4.43,2,6.05,4a6.45,6.45,0,0,0,1.77,1.32,10.69,10.69,0,0,1,3.76,3.68c.91,1.44,1.86,2.86,2.86,4.23a8.92,8.92,0,0,1,1.55,3.64,34.77,34.77,0,0,1-2.62,22.06c-1.06,2.29-2.92,3-4.95,3.59-1,.31-1.57-.22-1.68-1.21a15,15,0,0,1-.09-1.77c0-2.89-.14-5.76-.31-8.65-.4-6.59-3.26-12.12-7.53-16.89-5.71-6.37-13.07-8.18-21.22-6.19a28.68,28.68,0,0,0-12.38,6.41c-1.44,1.33-.71,1-4.41,4.72A66,66,0,0,0,2933,554c-1.08,2.17-2.1,3.89-3,6.06-.74,1.85-1.53,3.69-2.09,5.6a97.63,97.63,0,0,0-3.55,32.7c.2,4.31,1.69,8.3,3.16,12.39a28.81,28.81,0,0,0,2,4.16c1,1.54,1.88,2.81,2.77,4.24a19,19,0,0,0,9,7.58c7.12,3,14.52,3.17,22,2.34A114.26,114.26,0,0,0,2979,626c6-1.51,12.1-2.12,18-3.82,6.69-1.93,13.1-4.44,17.49-10.36a49.32,49.32,0,0,0,5.81-9.11,96.1,96.1,0,0,0,4.51-12,10.86,10.86,0,0,0,.79-3.34,7.63,7.63,0,0,1,.57-3.18,14.23,14.23,0,0,0,.73-3.24c.26-2.78.38-5.6.89-8.33A100.23,100.23,0,0,0,3029.28,548.57Zm-30.81-93.67a19.14,19.14,0,0,1,2.3,10c-.14,3.36.07,6.61,1.66,9.71.6,1.17.66,2.61,1.3,3.87a17.89,17.89,0,0,0,1.81,3.13c-.94-.09-1.26-.74-1.63-1.32a31,31,0,0,1-5.1-16.95,15.73,15.73,0,0,0-1.47-7.53,5.24,5.24,0,0,1-.38-2.32C2998,453.64,2998.17,454.34,2998.47,454.9Zm-47.73-15.41a190.77,190.77,0,0,0-4.11,26.23c-.76,10.85,0,21.56,3.49,31.95.12.34.21.69.38,1.24a1.84,1.84,0,0,1-1.25-.85c-3.37-3.86-4.51-8.5-5-13.46-1.64-16.37.86-32.25,5.53-47.88.76-2.54,1.62-5.06,2.43-7.59a1.4,1.4,0,0,1,.94-1.08Q2952,433.77,2950.74,439.49Zm-5,113a77.24,77.24,0,0,0-9.16,23.64,66.32,66.32,0,0,0,1.26,30.27c.2.72.4,1.42.58,2.14a4.12,4.12,0,0,1-.1.84,25.23,25.23,0,0,1-3.82-8,47.32,47.32,0,0,1-1.72-18,58.65,58.65,0,0,1,6.53-23.07,39.79,39.79,0,0,1,7.29-9.92A4.22,4.22,0,0,1,2945.78,552.46Z" transform="translate(-2177.83 -144.44)"/></svg>